<?xml version="1.0" encoding="utf-8"?>
<!-- Generator: Adobe Illustrator 21.1.0, SVG Export Plug-In . SVG Version: 6.00 Build 0)  -->
<svg version="1.1" id="Calque_1" xmlns="http://www.w3.org/2000/svg" xmlns:xlink="http://www.w3.org/1999/xlink" x="0px" y="0px"
	 viewBox="0 0 500 500" style="enable-background:new 0 0 500 500;" xml:space="preserve">
<style type="text/css">
	.st0{fill:#656565;stroke:#1D1D1B;stroke-linecap:round;stroke-miterlimit:10;}
	.st1{fill:#0A0B00;stroke:#1D1D1B;stroke-linecap:round;stroke-miterlimit:10;}
	.st2{stroke:#1D1D1B;stroke-linecap:round;stroke-miterlimit:10;}
	.st3{fill:#959595;stroke:#1D1D1B;stroke-linecap:round;stroke-miterlimit:10;}
</style>
<rect x="45.8" y="101.4" class="st0" width="34.1" height="34.1"/>
<rect x="79.8" y="101.4" class="st0" width="34.1" height="34.1"/>
<rect x="113.8" y="101.4" class="st1" width="34.1" height="34.1"/>
<rect x="147.8" y="101.4" class="st2" width="34.1" height="34.1"/>
<rect x="181.8" y="101.4" class="st2" width="34.1" height="34.1"/>
<rect x="215.8" y="101.4" class="st2" width="34.1" height="34.1"/>
<rect x="248.8" y="101.4" class="st2" width="34.1" height="34.1"/>
<rect x="282.8" y="101.4" class="st2" width="34.1" height="34.1"/>
<rect x="316.8" y="101.4" class="st2" width="34.1" height="34.1"/>
<rect x="350.8" y="101.4" class="st2" width="34.1" height="34.1"/>
<rect x="384.8" y="101.4" class="st0" width="34.1" height="34.1"/>
<rect x="418.8" y="101.4" class="st0" width="34.1" height="34.1"/>
<rect x="45.8" y="135.4" class="st0" width="34.1" height="34.1"/>
<rect x="79.8" y="135.4" class="st0" width="34.1" height="34.1"/>
<rect x="113.8" y="135.4" class="st1" width="34.1" height="34.1"/>
<rect x="147.8" y="135.4" class="st2" width="34.1" height="34.1"/>
<rect x="181.8" y="135.4" class="st2" width="34.1" height="34.1"/>
<rect x="215.8" y="135.4" class="st2" width="34.1" height="34.1"/>
<rect x="248.8" y="135.4" class="st2" width="34.1" height="34.1"/>
<rect x="282.8" y="135.4" class="st2" width="34.1" height="34.1"/>
<rect x="316.8" y="135.4" class="st2" width="34.1" height="34.1"/>
<rect x="350.8" y="135.4" class="st2" width="34.1" height="34.1"/>
<rect x="384.8" y="135.4" class="st0" width="34.1" height="34.1"/>
<rect x="418.8" y="135.4" class="st0" width="34.1" height="34.1"/>
<rect x="45.8" y="169.4" class="st0" width="34.1" height="34.1"/>
<rect x="79.8" y="169.4" class="st0" width="34.1" height="34.1"/>
<rect x="113.8" y="169.4" class="st0" width="34.1" height="34.1"/>
<rect x="147.8" y="169.4" class="st0" width="34.1" height="34.1"/>
<rect x="181.8" y="169.4" class="st0" width="34.1" height="34.1"/>
<rect x="215.8" y="169.4" class="st0" width="34.1" height="34.1"/>
<rect x="248.8" y="169.4" class="st0" width="34.1" height="34.1"/>
<rect x="282.8" y="169.4" class="st0" width="34.1" height="34.1"/>
<rect x="316.8" y="169.4" class="st0" width="34.1" height="34.1"/>
<rect x="350.8" y="169.4" class="st0" width="34.1" height="34.1"/>
<rect x="384.8" y="169.4" class="st0" width="34.1" height="34.1"/>
<rect x="418.8" y="169.4" class="st0" width="34.1" height="34.1"/>
<rect x="45.8" y="203.4" class="st3" width="34.1" height="34.1"/>
<rect x="79.8" y="203.4" class="st0" width="34.1" height="34.1"/>
<rect x="113.8" y="203.4" class="st0" width="34.1" height="34.1"/>
<rect x="147.8" y="203.4" class="st0" width="34.1" height="34.1"/>
<rect x="181.8" y="203.4" class="st0" width="34.1" height="34.1"/>
<rect x="215.8" y="203.4" class="st0" width="34.1" height="34.1"/>
<rect x="248.8" y="203.4" class="st0" width="34.1" height="34.1"/>
<rect x="282.8" y="203.4" class="st0" width="34.1" height="34.1"/>
<rect x="316.8" y="203.4" class="st0" width="34.1" height="34.1"/>
<rect x="350.8" y="203.4" class="st0" width="34.1" height="34.1"/>
<rect x="384.8" y="203.4" class="st0" width="34.1" height="34.1"/>
<rect x="418.8" y="203.4" class="st3" width="34.1" height="34.1"/>
<rect x="45.8" y="237.4" class="st3" width="34.1" height="34.1"/>
<rect x="79.8" y="237.4" class="st3" width="34.1" height="34.1"/>
<rect x="113.8" y="237.4" class="st0" width="34.1" height="34.1"/>
<rect x="147.8" y="237.4" class="st0" width="34.1" height="34.1"/>
<rect x="181.8" y="237.4" class="st0" width="34.1" height="34.1"/>
<rect x="215.8" y="237.4" class="st0" width="34.1" height="34.1"/>
<rect x="248.8" y="237.4" class="st0" width="34.1" height="34.1"/>
<rect x="282.8" y="237.4" class="st0" width="34.1" height="34.1"/>
<rect x="316.8" y="237.4" class="st0" width="34.1" height="34.1"/>
<rect x="350.8" y="237.4" class="st0" width="34.1" height="34.1"/>
<rect x="384.8" y="237.4" class="st3" width="34.1" height="34.1"/>
<rect x="418.8" y="237.4" class="st3" width="34.1" height="34.1"/>
<rect x="45.8" y="271.4" class="st3" width="34.1" height="34.1"/>
<rect x="79.8" y="271.4" class="st3" width="34.1" height="34.1"/>
<rect x="113.8" y="271.4" class="st3" width="34.1" height="34.1"/>
<rect x="147.8" y="271.4" class="st3" width="34.1" height="34.1"/>
<rect x="181.8" y="271.4" class="st3" width="34.1" height="34.1"/>
<rect x="215.8" y="271.4" class="st3" width="34.1" height="34.1"/>
<rect x="248.8" y="271.4" class="st3" width="34.1" height="34.1"/>
<rect x="282.8" y="271.4" class="st3" width="34.1" height="34.1"/>
<rect x="316.8" y="271.4" class="st3" width="34.1" height="34.1"/>
<rect x="350.8" y="271.4" class="st3" width="34.1" height="34.1"/>
<rect x="384.8" y="271.4" class="st3" width="34.1" height="34.1"/>
<rect x="418.8" y="271.4" class="st3" width="34.1" height="34.1"/>
<rect x="45.8" y="305.4" class="st3" width="34.1" height="34.1"/>
<rect x="79.8" y="305.4" class="st3" width="34.1" height="34.1"/>
<rect x="113.8" y="305.4" class="st3" width="34.1" height="34.1"/>
<rect x="147.8" y="305.4" class="st3" width="34.1" height="34.1"/>
<rect x="181.8" y="305.4" class="st3" width="34.1" height="34.1"/>
<rect x="215.8" y="305.4" class="st3" width="34.1" height="34.1"/>
<rect x="248.8" y="305.4" class="st3" width="34.1" height="34.1"/>
<rect x="282.8" y="305.4" class="st3" width="34.1" height="34.1"/>
<rect x="316.8" y="305.4" class="st3" width="34.1" height="34.1"/>
<rect x="350.8" y="305.4" class="st3" width="34.1" height="34.1"/>
<rect x="384.8" y="305.4" class="st3" width="34.1" height="34.1"/>
<rect x="418.8" y="305.4" class="st3" width="34.1" height="34.1"/>
<rect x="45.8" y="339.4" class="st3" width="34.1" height="34.1"/>
<rect x="79.8" y="339.4" class="st3" width="34.1" height="34.1"/>
<rect x="113.8" y="339.4" class="st3" width="34.1" height="34.1"/>
<rect x="147.8" y="339.4" class="st3" width="34.1" height="34.1"/>
<rect x="181.8" y="339.4" class="st3" width="34.1" height="34.1"/>
<rect x="215.8" y="339.4" class="st3" width="34.1" height="34.1"/>
<rect x="248.8" y="339.4" class="st3" width="34.1" height="34.1"/>
<rect x="282.8" y="339.4" class="st3" width="34.1" height="34.1"/>
<rect x="316.8" y="339.4" class="st3" width="34.1" height="34.1"/>
<rect x="350.8" y="339.4" class="st3" width="34.1" height="34.1"/>
<rect x="384.8" y="339.4" class="st3" width="34.1" height="34.1"/>
<rect x="418.8" y="339.4" class="st3" width="34.1" height="34.1"/>
<rect x="45.8" y="373.4" class="st3" width="34.1" height="34.1"/>
<rect x="79.8" y="373.4" class="st3" width="34.1" height="34.1"/>
<rect x="113.8" y="373.4" class="st3" width="34.1" height="34.1"/>
<rect x="147.8" y="373.4" class="st3" width="34.1" height="34.1"/>
<rect x="181.8" y="373.4" class="st3" width="34.1" height="34.1"/>
<rect x="215.8" y="373.4" class="st3" width="34.1" height="34.1"/>
<rect x="248.8" y="373.4" class="st3" width="34.1" height="34.1"/>
<rect x="282.8" y="373.4" class="st3" width="34.1" height="34.1"/>
<rect x="316.8" y="373.4" class="st3" width="34.1" height="34.1"/>
<rect x="350.8" y="373.4" class="st3" width="34.1" height="34.1"/>
<rect x="384.8" y="373.4" class="st3" width="34.1" height="34.1"/>
<rect x="418.8" y="373.4" class="st3" width="34.1" height="34.1"/>
<rect x="79.8" y="407.4" class="st3" width="34.1" height="34.1"/>
<rect x="113.8" y="407.4" class="st3" width="34.1" height="34.1"/>
<rect x="147.8" y="407.4" class="st3" width="34.1" height="34.1"/>
<rect x="181.8" y="407.4" class="st3" width="34.1" height="34.1"/>
<rect x="215.8" y="407.4" class="st3" width="34.1" height="34.1"/>
<rect x="248.8" y="407.4" class="st3" width="34.1" height="34.1"/>
<rect x="282.8" y="407.4" class="st3" width="34.1" height="34.1"/>
<rect x="316.8" y="407.4" class="st3" width="34.1" height="34.1"/>
<rect x="350.8" y="407.4" class="st3" width="34.1" height="34.1"/>
<rect x="384.8" y="407.4" class="st3" width="34.1" height="34.1"/>
<rect x="113.8" y="441.4" class="st3" width="34.1" height="34.1"/>
<rect x="147.8" y="441.4" class="st3" width="34.1" height="34.1"/>
<rect x="181.8" y="441.4" class="st3" width="34.1" height="34.1"/>
<rect x="215.8" y="441.4" class="st3" width="34.1" height="34.1"/>
<rect x="248.8" y="441.4" class="st3" width="34.1" height="34.1"/>
<rect x="282.8" y="441.4" class="st3" width="34.1" height="34.1"/>
<rect x="316.8" y="441.4" class="st3" width="34.1" height="34.1"/>
<rect x="350.8" y="441.4" class="st3" width="34.1" height="34.1"/>
</svg>
