<?xml version="1.0" encoding="utf-8"?>
<!-- Generator: Adobe Illustrator 21.1.0, SVG Export Plug-In . SVG Version: 6.00 Build 0)  -->
<svg version="1.1" id="Calque_1" xmlns="http://www.w3.org/2000/svg" xmlns:xlink="http://www.w3.org/1999/xlink" x="0px" y="0px"
	 viewBox="0 0 500 500" style="enable-background:new 0 0 500 500;" xml:space="preserve">
<style type="text/css">
	.st0{fill:#A3A100;stroke:#1D1D1B;stroke-linecap:round;stroke-miterlimit:10;}
	.st1{fill:#DCD100;stroke:#1D1D1B;stroke-linecap:round;stroke-miterlimit:10;}
	.st2{fill:#9F9D00;stroke:#1D1D1B;stroke-linecap:round;stroke-miterlimit:10;}
</style>
<rect x="384.8" y="321.4" class="st0" width="34.1" height="34.1"/>
<rect x="384.8" y="287.4" class="st0" width="34.1" height="34.1"/>
<rect x="384.8" y="253.4" class="st0" width="34.1" height="34.1"/>
<rect x="384.8" y="219.4" class="st0" width="34.1" height="34.1"/>
<rect x="384.8" y="185.4" class="st0" width="34.1" height="34.1"/>
<rect x="384.8" y="151.4" class="st0" width="34.1" height="34.1"/>
<rect x="418.8" y="321.4" class="st1" width="34.1" height="34.1"/>
<rect x="418.8" y="287.4" class="st1" width="34.1" height="34.1"/>
<rect x="418.8" y="253.4" class="st1" width="34.1" height="34.1"/>
<rect x="418.8" y="219.4" class="st1" width="34.1" height="34.1"/>
<rect x="418.8" y="185.4" class="st1" width="34.1" height="34.1"/>
<rect x="418.8" y="151.4" class="st1" width="34.1" height="34.1"/>
<rect x="44.8" y="321.4" class="st1" width="34.1" height="34.1"/>
<rect x="44.8" y="287.4" class="st1" width="34.1" height="34.1"/>
<rect x="44.8" y="253.4" class="st1" width="34.1" height="34.1"/>
<rect x="44.8" y="219.4" class="st1" width="34.1" height="34.1"/>
<rect x="44.8" y="185.4" class="st1" width="34.1" height="34.1"/>
<rect x="44.8" y="151.4" class="st1" width="34.1" height="34.1"/>
<rect x="350.8" y="321.4" class="st1" width="34.1" height="34.1"/>
<rect x="350.8" y="287.4" class="st1" width="34.1" height="34.1"/>
<rect x="350.8" y="253.4" class="st1" width="34.1" height="34.1"/>
<rect x="350.8" y="219.4" class="st1" width="34.1" height="34.1"/>
<rect x="350.8" y="185.4" class="st1" width="34.1" height="34.1"/>
<rect x="350.8" y="151.4" class="st1" width="34.1" height="34.1"/>
<rect x="316.8" y="321.4" class="st1" width="34.1" height="34.1"/>
<rect x="316.8" y="287.4" class="st1" width="34.1" height="34.1"/>
<rect x="316.8" y="253.4" class="st1" width="34.1" height="34.1"/>
<rect x="316.8" y="219.4" class="st1" width="34.1" height="34.1"/>
<rect x="316.8" y="185.4" class="st1" width="34.1" height="34.1"/>
<rect x="316.8" y="151.4" class="st1" width="34.1" height="34.1"/>
<rect x="282.8" y="321.4" class="st1" width="34.1" height="34.1"/>
<rect x="282.8" y="287.4" class="st1" width="34.1" height="34.1"/>
<rect x="282.8" y="253.4" class="st1" width="34.1" height="34.1"/>
<rect x="282.8" y="219.4" class="st1" width="34.1" height="34.1"/>
<rect x="282.8" y="185.4" class="st1" width="34.1" height="34.1"/>
<rect x="282.8" y="151.4" class="st1" width="34.1" height="34.1"/>
<rect x="248.8" y="321.4" class="st2" width="34.1" height="34.1"/>
<rect x="248.8" y="287.4" class="st2" width="34.1" height="34.1"/>
<rect x="248.8" y="253.4" class="st2" width="34.1" height="34.1"/>
<rect x="248.8" y="219.4" class="st2" width="34.1" height="34.1"/>
<rect x="248.8" y="185.4" class="st2" width="34.1" height="34.1"/>
<rect x="248.8" y="151.4" class="st2" width="34.1" height="34.1"/>
<rect x="214.8" y="321.4" class="st2" width="34.1" height="34.1"/>
<rect x="214.8" y="287.4" class="st2" width="34.1" height="34.1"/>
<rect x="214.8" y="253.4" class="st2" width="34.1" height="34.1"/>
<rect x="214.8" y="219.4" class="st2" width="34.1" height="34.1"/>
<rect x="214.8" y="185.4" class="st2" width="34.1" height="34.1"/>
<rect x="214.8" y="151.4" class="st2" width="34.1" height="34.1"/>
<rect x="180.8" y="321.4" class="st1" width="34.1" height="34.1"/>
<rect x="180.8" y="287.4" class="st1" width="34.1" height="34.1"/>
<rect x="180.8" y="253.4" class="st1" width="34.1" height="34.1"/>
<rect x="180.8" y="219.4" class="st1" width="34.1" height="34.1"/>
<rect x="180.8" y="185.4" class="st1" width="34.1" height="34.1"/>
<rect x="180.8" y="151.4" class="st1" width="34.1" height="34.1"/>
<rect x="146.8" y="321.4" class="st1" width="34.1" height="34.1"/>
<rect x="316.8" y="355.4" class="st1" width="34.1" height="34.1"/>
<rect x="282.8" y="355.4" class="st1" width="34.1" height="34.1"/>
<rect x="248.8" y="355.4" class="st1" width="34.1" height="34.1"/>
<rect x="214.8" y="355.4" class="st1" width="34.1" height="34.1"/>
<rect x="180.8" y="355.4" class="st1" width="34.1" height="34.1"/>
<rect x="146.8" y="355.4" class="st1" width="34.1" height="34.1"/>
<rect x="112.8" y="355.4" class="st0" width="34.1" height="34.1"/>
<rect x="78.8" y="355.4" class="st1" width="34.1" height="34.1"/>
<rect x="112.8" y="389.4" class="st1" width="34.1" height="34.1"/>
<rect x="350.8" y="355.4" transform="matrix(4.487084e-11 -1 1 4.487084e-11 -4.5986 740.3087)" class="st0" width="34.1" height="34.1"/>
<rect x="350.8" y="389.4" transform="matrix(4.487084e-11 -1 1 4.487084e-11 -38.5986 774.3087)" class="st1" width="34.1" height="34.1"/>
<rect x="384.8" y="355.4" transform="matrix(4.487084e-11 -1 1 4.487084e-11 29.4014 774.3087)" class="st1" width="34.1" height="34.1"/>
<rect x="350.8" y="117.4" transform="matrix(-1 -8.974212e-11 8.974212e-11 -1 735.7101 268.9073)" class="st0" width="34.1" height="34.1"/>
<rect x="384.8" y="117.4" transform="matrix(-1 -8.979541e-11 8.979541e-11 -1 803.7101 268.9073)" class="st1" width="34.1" height="34.1"/>
<rect x="350.8" y="83.4" transform="matrix(-1 -8.974212e-11 8.974212e-11 -1 735.7101 200.9073)" class="st1" width="34.1" height="34.1"/>
<rect x="112.8" y="117.4" transform="matrix(-1.346125e-10 1 -1 -1.346125e-10 264.3087 4.5986)" class="st0" width="34.1" height="34.1"/>
<rect x="112.8" y="83.4" transform="matrix(-1.346924e-10 1 -1 -1.346924e-10 230.3087 -29.4014)" class="st1" width="34.1" height="34.1"/>
<rect x="78.8" y="117.4" transform="matrix(-1.346391e-10 1 -1 -1.346391e-10 230.3087 38.5986)" class="st1" width="34.1" height="34.1"/>
<rect x="316.8" y="389.4" class="st0" width="34.1" height="34.1"/>
<rect x="282.8" y="389.4" class="st0" width="34.1" height="34.1"/>
<rect x="248.8" y="389.4" class="st0" width="34.1" height="34.1"/>
<rect x="214.8" y="389.4" class="st0" width="34.1" height="34.1"/>
<rect x="180.8" y="389.4" class="st0" width="34.1" height="34.1"/>
<rect x="146.8" y="389.4" class="st0" width="34.1" height="34.1"/>
<rect x="316.8" y="423.4" class="st1" width="34.1" height="34.1"/>
<rect x="282.8" y="423.4" class="st1" width="34.1" height="34.1"/>
<rect x="248.8" y="423.4" class="st1" width="34.1" height="34.1"/>
<rect x="214.8" y="423.4" class="st1" width="34.1" height="34.1"/>
<rect x="180.8" y="423.4" class="st1" width="34.1" height="34.1"/>
<rect x="146.8" y="423.4" class="st1" width="34.1" height="34.1"/>
<rect x="316.8" y="83.4" class="st0" width="34.1" height="34.1"/>
<rect x="282.8" y="83.4" class="st0" width="34.1" height="34.1"/>
<rect x="248.8" y="83.4" class="st0" width="34.1" height="34.1"/>
<rect x="214.8" y="83.4" class="st0" width="34.1" height="34.1"/>
<rect x="180.8" y="83.4" class="st0" width="34.1" height="34.1"/>
<rect x="146.8" y="83.4" class="st0" width="34.1" height="34.1"/>
<rect x="316.8" y="49.4" class="st1" width="34.1" height="34.1"/>
<rect x="282.8" y="49.4" class="st1" width="34.1" height="34.1"/>
<rect x="248.8" y="49.4" class="st1" width="34.1" height="34.1"/>
<rect x="214.8" y="49.4" class="st1" width="34.1" height="34.1"/>
<rect x="180.8" y="49.4" class="st1" width="34.1" height="34.1"/>
<rect x="146.8" y="49.4" class="st1" width="34.1" height="34.1"/>
<rect x="316.8" y="117.4" class="st1" width="34.1" height="34.1"/>
<rect x="282.8" y="117.4" class="st1" width="34.1" height="34.1"/>
<rect x="248.8" y="117.4" class="st1" width="34.1" height="34.1"/>
<rect x="214.8" y="117.4" class="st1" width="34.1" height="34.1"/>
<rect x="180.8" y="117.4" class="st1" width="34.1" height="34.1"/>
<rect x="146.8" y="117.4" class="st1" width="34.1" height="34.1"/>
<rect x="146.8" y="287.4" class="st1" width="34.1" height="34.1"/>
<rect x="146.8" y="253.4" class="st1" width="34.1" height="34.1"/>
<rect x="146.8" y="219.4" class="st1" width="34.1" height="34.1"/>
<rect x="146.8" y="185.4" class="st1" width="34.1" height="34.1"/>
<rect x="146.8" y="151.4" class="st1" width="34.1" height="34.1"/>
<rect x="112.8" y="321.4" class="st1" width="34.1" height="34.1"/>
<rect x="112.8" y="287.4" class="st1" width="34.1" height="34.1"/>
<rect x="112.8" y="253.4" class="st1" width="34.1" height="34.1"/>
<rect x="112.8" y="219.4" class="st1" width="34.1" height="34.1"/>
<rect x="112.8" y="185.4" class="st1" width="34.1" height="34.1"/>
<rect x="112.8" y="151.4" class="st1" width="34.1" height="34.1"/>
<rect x="78.8" y="321.4" class="st0" width="34.1" height="34.1"/>
<rect x="78.8" y="287.4" class="st0" width="34.1" height="34.1"/>
<rect x="78.8" y="253.4" class="st0" width="34.1" height="34.1"/>
<rect x="78.8" y="219.4" class="st0" width="34.1" height="34.1"/>
<rect x="78.8" y="185.4" class="st0" width="34.1" height="34.1"/>
<rect x="78.8" y="151.4" class="st0" width="34.1" height="34.1"/>
</svg>
