<?xml version="1.0" encoding="utf-8"?>
<!-- Generator: Adobe Illustrator 21.1.0, SVG Export Plug-In . SVG Version: 6.00 Build 0)  -->
<svg version="1.1" id="Calque_1" xmlns="http://www.w3.org/2000/svg" xmlns:xlink="http://www.w3.org/1999/xlink" x="0px" y="0px"
	 viewBox="0 0 500 500" style="enable-background:new 0 0 500 500;" xml:space="preserve">
<style type="text/css">
	.st0{stroke:#1D1D1B;stroke-linecap:round;stroke-miterlimit:10;}
</style>
<rect x="350.8" y="253.4" class="st0" width="34.1" height="34.1"/>
<rect x="350.8" y="219.4" class="st0" width="34.1" height="34.1"/>
<rect x="316.8" y="253.4" class="st0" width="34.1" height="34.1"/>
<rect x="316.8" y="219.4" class="st0" width="34.1" height="34.1"/>
<rect x="282.8" y="253.4" class="st0" width="34.1" height="34.1"/>
<rect x="282.8" y="219.4" class="st0" width="34.1" height="34.1"/>
<rect x="248.8" y="321.4" class="st0" width="34.1" height="34.1"/>
<rect x="248.8" y="287.4" class="st0" width="34.1" height="34.1"/>
<rect x="248.8" y="253.4" class="st0" width="34.1" height="34.1"/>
<rect x="248.8" y="219.4" class="st0" width="34.1" height="34.1"/>
<rect x="248.8" y="185.4" class="st0" width="34.1" height="34.1"/>
<rect x="248.8" y="151.4" class="st0" width="34.1" height="34.1"/>
<rect x="214.8" y="321.4" class="st0" width="34.1" height="34.1"/>
<rect x="214.8" y="287.4" class="st0" width="34.1" height="34.1"/>
<rect x="214.8" y="253.4" class="st0" width="34.1" height="34.1"/>
<rect x="214.8" y="219.4" class="st0" width="34.1" height="34.1"/>
<rect x="214.8" y="185.4" class="st0" width="34.1" height="34.1"/>
<rect x="214.8" y="151.4" class="st0" width="34.1" height="34.1"/>
<rect x="180.8" y="253.4" class="st0" width="34.1" height="34.1"/>
<rect x="180.8" y="219.4" class="st0" width="34.1" height="34.1"/>
<rect x="248.8" y="355.4" class="st0" width="34.1" height="34.1"/>
<rect x="214.8" y="355.4" class="st0" width="34.1" height="34.1"/>
<rect x="248.8" y="117.4" class="st0" width="34.1" height="34.1"/>
<rect x="214.8" y="117.4" class="st0" width="34.1" height="34.1"/>
<rect x="146.8" y="253.4" class="st0" width="34.1" height="34.1"/>
<rect x="146.8" y="219.4" class="st0" width="34.1" height="34.1"/>
<rect x="112.8" y="253.4" class="st0" width="34.1" height="34.1"/>
<rect x="112.8" y="219.4" class="st0" width="34.1" height="34.1"/>
</svg>
